<?xml version="1.0" standalone="no"?><!DOCTYPE svg PUBLIC "-//W3C//DTD SVG 1.1//EN" "http://www.w3.org/Graphics/SVG/1.1/DTD/svg11.dtd"><svg t="1722416182825" class="icon" viewBox="0 0 1024 1024" version="1.1" xmlns="http://www.w3.org/2000/svg" p-id="4457" xmlns:xlink="http://www.w3.org/1999/xlink" width="200" height="200"><path d="M970.209398 250.423493c-13.647835-12.116969-31.376615-23.596418-53.314253-34.437324-21.937638-10.840906-47.064922-19.897166-75.252914-27.166733-28.186969-7.269567-57.012482-9.82067-86.220711-7.780197-46.682205 2.805906-84.308151 11.351536-112.750947 25.636891-28.569686 14.285355-49.615001 31.631418-63.262835 51.783386-13.647835 20.151969-20.279882 41.834804-19.897166 64.793702 0.255827 22.957875 5.994528 44.51382 17.219173 64.665789-6.886851 9.69378-12.882402 18.749016-17.72878 27.167756-4.846378 8.417717-10.076496 18.494213-15.688307 30.356379-14.030551 34.82004-22.704095 69.257364-26.14752 103.439883-21.554922-31.376615-43.49256-57.140395-65.813938-77.293387 5.484921-20.917402 6.249331-41.834804 2.041496-62.752206-4.208858-20.917402-14.412244-39.284725-30.993898-55.482639-16.325827-16.071024-38.902008-28.442796-67.854411-37.116339s-65.303308-10.968819-109.179608-6.75996c-28.570709 2.805906-55.737442 9.565866-81.502246 20.406772-25.764803 10.841929-48.212048 23.085788-67.344804 36.605709-19.131733 13.647835-34.437323 27.42256-45.916772 41.325198s-17.21815 25.381064-17.218151 34.437323 5.101181 13.774725 15.177678 14.157441 22.958898-0.255827 38.646182-2.040472c15.688307-1.658779 33.162284-2.168386 52.294017-1.530866 19.131733 0.638543 37.753859 6.249331 55.865355 16.708543a287.995203 287.995203 0 0 1 34.94693 21.937639c11.479449 8.290827 22.830985 16.198937 33.927717 23.468504a383.732661 383.732661 0 0 0 33.417087 19.897166c11.223622 5.866614 23.085788 9.948583 35.585473 11.989055 7.014764 1.276063 15.177678 2.168386 24.616654 2.551102 9.311063 0.382717 19.259646-1.020236 29.718859-4.208858 10.458189-3.060709 20.789489-8.800433 30.865984-17.21815s19.004843-20.917402 26.657127-37.626969c12.499685 13.902638 23.979134 28.570709 34.437323 43.8763s21.300119 34.18252 32.268938 56.374962c0 10.459213 0.382717 21.300119 1.02126 32.396851a1496.891284 1496.891284 0 0 1 1.530866 32.90748c0.382717 10.841929 0 20.917402-1.02126 30.356379-1.020236 9.438976-3.316535 17.60189-6.759961 24.616654-3.571339 5.611811-4.846378 10.459213-4.208858 14.668071 0 3.443425 1.913583 6.759961 5.738701 9.948583 3.827165 3.188622 11.351536 4.718465 22.448268 4.718464 9.821693 0 16.45374-1.530866 19.897166-4.718464 3.444449-3.188622 5.229095-6.505158 5.229095-9.948583 0-4.208858-1.785669-9.438976-5.229095-15.688308-2.805906-5.611811-4.846378-14.794961-6.249331-27.677362-1.276063-12.882402-2.168386-27.039843-2.551102-42.345434-0.382717-15.433504-0.127913-30.867008 0.510629-46.554292 0.765433-15.688307 1.785669-28.697599 3.188623-39.156812 1.402953-12.499685 3.316535-25.891693 5.739724-40.177048 2.423189-14.284331 5.483898-28.060079 8.928347-41.324174 3.443425-13.265118 7.397481-25.63689 11.989055-37.116339 4.463662-11.479449 9.948583-21.427008 16.197914-29.717836 9.69378 13.137205 20.025079 22.575158 30.993898 27.932166 10.840906 5.611811 21.300119 8.928347 31.376615 9.948583s19.642362 0.51063 28.697599-1.530866c9.055237-2.040473 16.708544-4.208858 22.957874-6.249331 12.499685-4.081968 24.106024-10.203386 34.947954-18.239409s21.300119-16.708544 31.376614-26.146497c10.203386-9.311063 20.279882-19.131733 30.356379-29.208229 10.076496-10.076496 20.790512-19.259646 31.887244-27.677363 16.708544-13.264095 34.565237-21.809725 53.314253-25.63689s35.967166-6.377244 51.655474-7.780197 28.697599-2.933819 39.156811-4.719488c10.458189-1.785669 15.688307-6.759961 15.688308-15.178701s-6.887874-18.622126-20.407796-30.867008z m-531.357883 236.980319c-20.151969-19.514449-40.686654-35.074843-61.60508-46.554292-20.917402-11.478426-41.962717-20.279882-63.262836-26.146497-21.300119-5.994528-42.345434-9.05626-63.262836-9.438976a517.076622 517.076622 0 0 0-61.605079 2.551102c-1.402953 0-2.551102-0.127913-3.188623-0.510629-0.765433-0.382717-0.382717-0.51063 1.020237-0.51063 46.044686-11.862165 90.558505-12.882402 133.796262-3.188622 43.109844 9.82067 84.308151 31.376615 123.209136 64.793701l-5.101181 19.004843z m391.821896-217.975476c-0.765433 0.382717-1.785669 0.51063-3.188622 0.510629-18.111496 0.63752-36.733623 2.933819-56.248071 6.759961s-39.539528 10.714016-60.074214 20.406772c-20.534685 9.69378-40.687678 22.958898-60.584844 39.667442-19.897166 16.708544-39.284725 38.008662-58.033741 63.772442l-10.459212-17.72878c31.376615-39.794331 67.599607-69.895907 108.668978-90.430592 41.070394-20.534685 86.987167-28.315906 137.877207-23.468504 2.042519 0 2.681062 0.127913 2.042519 0.51063z" fill="#64BC03" p-id="4458"></path><path d="M776.338922 788.79614c-9.05626-6.632047-22.448268-13.647835-40.177048-20.917402s-37.753859-14.794961-60.074213-22.448268c-22.320355-7.652284-43.620473-14.284331-63.773466-19.897166-9.055237-2.168386-16.071024-1.658779-20.917402 1.530866-4.974291 3.061732-9.821693 6.886851-14.668071 11.479449-4.846378 4.463662-10.586103 9.05626-17.21815 13.519922-6.632047 4.464685-16.198937 6.759961-28.697599 6.759961s-22.065552-2.168386-28.697599-6.759961-12.116969-9.311063-16.708544-14.157441c-4.591575-4.847401-9.438976-8.801457-14.667048-11.989056-3.290953-1.925862-7.341199-2.737344-12.147667-2.37714-2.831488 0.211824-5.922896 0.826831-9.280364 1.86651-20.279882 5.611811-41.325198 12.116969-63.262836 19.38756-21.937638 7.269567-41.580001 14.412244-59.053978 21.427008-17.346063 7.014764-30.611182 13.774725-39.666418 20.407796s-10.840906 12.371772-5.229094 17.219173c10.459213 8.290827 27.805276 15.433504 52.42193 21.554922 24.361851 5.866614 52.167127 10.331299 83.542718 13.519921 26.203802 2.673899 53.861722 4.166903 82.860172 4.583389 5.583159 0.080841 11.19804 0.135076 16.881483 0.135076 35.202757 0 69.385277-1.402953 102.419647-4.208858 33.162284-2.679016 63.773466-7.142677 91.960435-13.009292 28.187993-5.866614 50.636261-13.392008 67.344804-22.448268 6.884804-3.571339 5.864568-8.54563-3.191692-15.178701z" fill="#B27214" p-id="4459"></path><path d="M458.591091 723.538881c-2.831488 0.211824-5.922896 0.826831-9.280364 1.86651-20.279882 5.611811-41.325198 12.116969-63.262835 19.387559-21.937638 7.269567-41.580001 14.412244-59.053978 21.427009-17.346063 7.014764-30.611182 13.774725-39.666418 20.407795s-10.840906 12.371772-5.229095 17.219174c10.459213 8.290827 27.805276 15.433504 52.42193 21.554922 24.361851 5.866614 52.167127 10.331299 83.542718 13.519921 26.203802 2.673899 53.861722 4.166903 82.860173 4.583389-0.002047-39.245839-72.059176-72.41017-42.332131-119.966279z" fill="#995C0D" p-id="4460"></path></svg>