<?xml version="1.0" standalone="no"?><!DOCTYPE svg PUBLIC "-//W3C//DTD SVG 1.1//EN" "http://www.w3.org/Graphics/SVG/1.1/DTD/svg11.dtd"><svg t="1723452724570" class="icon" viewBox="0 0 1024 1024" version="1.1" xmlns="http://www.w3.org/2000/svg" p-id="7961" xmlns:xlink="http://www.w3.org/1999/xlink" width="24" height="24"><path d="M921.6 952.32H102.4c-15.36 0-25.6-10.24-25.6-25.6v-716.8c0-15.36 10.24-25.6 25.6-25.6h819.2c15.36 0 25.6 10.24 25.6 25.6v716.8c0 15.36-10.24 25.6-25.6 25.6z m-793.6-51.2h768v-665.6h-768v665.6z" fill="currentColor" p-id="7962"></path><path d="M343.04 327.68c-15.36 0-25.6-10.24-25.6-25.6v-204.8c0-15.36 10.24-25.6 25.6-25.6s25.6 10.24 25.6 25.6v204.8c0 15.36-10.24 25.6-25.6 25.6zM691.2 327.68c-15.36 0-25.6-10.24-25.6-25.6v-204.8c0-15.36 10.24-25.6 25.6-25.6s25.6 10.24 25.6 25.6v204.8c0 15.36-10.24 25.6-25.6 25.6zM921.6 424.96H102.4c-15.36 0-25.6-10.24-25.6-25.6s10.24-25.6 25.6-25.6h819.2c15.36 0 25.6 10.24 25.6 25.6s-10.24 25.6-25.6 25.6zM450.56 768c-5.12 0-15.36-5.12-20.48-10.24l-92.16-97.28c-10.24-10.24-10.24-25.6 0-35.84 10.24-10.24 25.6-10.24 35.84 0l92.16 97.28c10.24 10.24 10.24 25.6 0 35.84-5.12 10.24-10.24 10.24-15.36 10.24z" fill="currentColor" p-id="7963"></path><path d="M450.56 768c-5.12 0-15.36-5.12-20.48-10.24-10.24-10.24-10.24-25.6 0-35.84l225.28-220.16c10.24-10.24 25.6-10.24 35.84 0 10.24 10.24 10.24 25.6 0 35.84l-225.28 220.16c0 10.24-10.24 10.24-15.36 10.24z" fill="currentColor" p-id="7964"></path></svg>