<?xml version="1.0" standalone="no"?><!DOCTYPE svg PUBLIC "-//W3C//DTD SVG 1.1//EN" "http://www.w3.org/Graphics/SVG/1.1/DTD/svg11.dtd"><svg t="1721717471853" class="icon" viewBox="0 0 1024 1024" version="1.1" xmlns="http://www.w3.org/2000/svg" p-id="5389" xmlns:xlink="http://www.w3.org/1999/xlink" width="200" height="200"><path d="M921.6 184.32h-204.8V97.28c0-15.36-10.24-25.6-25.6-25.6s-25.6 10.24-25.6 25.6v87.04H368.64V97.28c0-15.36-10.24-25.6-25.6-25.6s-25.6 10.24-25.6 25.6v87.04H102.4c-15.36 0-25.6 10.24-25.6 25.6v716.8c0 15.36 10.24 25.6 25.6 25.6h819.2c15.36 0 25.6-10.24 25.6-25.6v-716.8c0-15.36-10.24-25.6-25.6-25.6z m-604.16 51.2v66.56c0 15.36 10.24 25.6 25.6 25.6s25.6-10.24 25.6-25.6V235.52H665.6v66.56c0 15.36 10.24 25.6 25.6 25.6s25.6-10.24 25.6-25.6V235.52h179.2v138.24h-768V235.52h189.44z m-189.44 665.6V424.96h768v476.16h-768z" fill="#2c2c2c" p-id="5390"></path><path d="M691.2 501.76c-10.24-10.24-25.6-10.24-35.84 0l-204.8 199.68-76.8-76.8c-10.24-10.24-25.6-10.24-35.84 0-10.24 10.24-10.24 25.6 0 35.84l92.16 97.28c10.24 10.24 25.6 10.24 35.84 0l225.28-220.16c10.24-10.24 10.24-25.6 0-35.84z" fill="#2c2c2c" p-id="5391"></path></svg>