<?xml version="1.0" standalone="no"?><!DOCTYPE svg PUBLIC "-//W3C//DTD SVG 1.1//EN" "http://www.w3.org/Graphics/SVG/1.1/DTD/svg11.dtd"><svg t="1723453460050" class="icon" viewBox="0 0 1024 1024" version="1.1" xmlns="http://www.w3.org/2000/svg" p-id="2492" xmlns:xlink="http://www.w3.org/1999/xlink" width="24" height="24"><path d="M773.019608 179.501176h-88.545883V134.927059a15.058824 15.058824 0 1 0-30.117647 0v44.574117H369.643922V134.927059a15.058824 15.058824 0 1 0-30.117647 0v44.574117H250.980392a115.651765 115.651765 0 0 0-115.45098 115.450981v493.728627A115.651765 115.651765 0 0 0 250.980392 903.529412h522.039216a115.651765 115.651765 0 0 0 115.45098-115.450981V294.952157a115.651765 115.651765 0 0 0-115.45098-115.450981z m-522.039216 30.117648h88.545883v62.84549a15.058824 15.058824 0 0 0 30.117647 0v-62.84549h284.712156v62.84549a15.058824 15.058824 0 0 0 30.117647 0v-62.84549h88.545883a85.333333 85.333333 0 0 1 85.333333 85.333333v156.210196H165.647059v-156.210196a85.333333 85.333333 0 0 1 85.333333-85.333333z m522.039216 664.395294h-522.039216a85.534118 85.534118 0 0 1-85.333333-85.333334V481.882353h692.705882v306.798431a85.534118 85.534118 0 0 1-85.333333 85.333334z" fill="currentColor" p-id="2493"></path></svg>