<?xml version="1.0" standalone="no"?><!DOCTYPE svg PUBLIC "-//W3C//DTD SVG 1.1//EN" "http://www.w3.org/Graphics/SVG/1.1/DTD/svg11.dtd"><svg t="1723454074574" class="icon" viewBox="0 0 1024 1024" version="1.1" xmlns="http://www.w3.org/2000/svg" p-id="13974" width="24" height="24" xmlns:xlink="http://www.w3.org/1999/xlink"><path d="M192 192a32 32 0 0 1 32-32 640 640 0 0 1 640 640 32 32 0 1 1-64 0A576 576 0 0 0 224 224a32 32 0 0 1-32-32zM192 480a32 32 0 0 1 32-32 352 352 0 0 1 352 352 32 32 0 1 1-64 0 288 288 0 0 0-288-288 32 32 0 0 1-32-32z" fill="currentColor" p-id="13975"></path><path d="M224 848a48 48 0 1 0 0-96 48 48 0 0 0 0 96z" fill="currentColor" p-id="13976"></path></svg>