<?xml version="1.0" standalone="no"?><!DOCTYPE svg PUBLIC "-//W3C//DTD SVG 1.1//EN" "http://www.w3.org/Graphics/SVG/1.1/DTD/svg11.dtd"><svg t="1723453296474" class="icon" viewBox="0 0 1024 1024" version="1.1" xmlns="http://www.w3.org/2000/svg" p-id="16148" xmlns:xlink="http://www.w3.org/1999/xlink" width="24" height="24"><path d="M978.189 572.823c18.78 25.25 15.26 46.3-8.439 55.359-5.94 2.271-13.03 2.08-19.591 2.09-285.1 0.091-570.2 0.33-855.3-0.67-14.67-0.05-35.1-7.109-42.14-17.89-5.73-8.78 0.92-30.31 8.35-42.3 88.39-142.62 177.93-284.54 267.24-426.59 24.93-39.65 41.22-40.08 68.19-2.16 78.91 110.95 157.83 221.89 236.78 332.81 4.771 6.7 9.86 13.17 16.78 22.39 36.82-44.25 71.67-85.88 106.21-127.75 27.8-33.69 42.79-33.88 68.43 0.18 51.271 68.101 102.62 136.141 153.49 204.531zM945.606 693.902c-38.576-1.093-38.335-18.139-76.927-18.139-38.594 0-38.594 18.143-77.188 18.143-38.595 0-38.595-18.143-77.189-18.143-38.594 0-38.594 18.143-77.188 18.143-38.595 0-38.595-18.143-77.189-18.143s-38.595 18.143-77.189 18.143c-38.595 0-38.595-18.143-77.19-18.143s-38.595 18.143-77.189 18.143c-38.595 0-38.595-18.143-77.191-18.143-38.597 0-38.597 18.143-77.194 18.143-38.598 0-38.869-19.229-77.451-18.139-1.09 0.031 9.327 10.158 9.327 11.248s-18.142 1.09-18.142 2.18 18.142 1.09 18.142 2.181-18.142 1.091-18.142 2.181c0 1.089 18.142 1.089 18.142 2.178 0 1.09-18.142 1.09-18.142 2.18 0 1.092 18.142 1.092 18.142 2.183s-18.142 1.091-18.142 2.183 18.142 1.092 18.142 2.184c0 1.094-18.142 1.094-18.142 2.188s8.235-6.912 9.328-6.881c38.576 1.093 38.335 18.139 76.927 18.139 38.594 0 38.594-18.143 77.188-18.143 38.595 0 38.595 18.143 77.189 18.143 38.593 0 38.593-18.143 77.187-18.143 38.595 0 38.595 18.143 77.19 18.143 38.594 0 38.594-18.143 77.189-18.143 38.596 0 38.596 18.143 77.19 18.143s38.595-18.143 77.188-18.143c38.596 0 38.596 18.143 77.191 18.143 38.598 0 38.598-18.143 77.194-18.143s38.869 19.229 77.45 18.139c1.09-0.031-9.327-10.158-9.327-11.248s18.143-1.09 18.143-2.18-18.143-1.09-18.143-2.181 18.143-1.091 18.143-2.182c0-1.089-18.143-1.089-18.143-2.177 0-1.09 18.143-1.09 18.143-2.18 0-1.092-18.143-1.092-18.143-2.183s18.143-1.091 18.143-2.183-18.143-1.092-18.143-2.184c0-1.094-0.052-1.685 0.14-0.607 0.619 3.492 9.769 5.332 8.676 5.3zM925.606 754.902c-38.576-1.093-38.335-18.139-76.927-18.139-38.594 0-38.594 18.143-77.188 18.143-38.595 0-38.595-18.143-77.189-18.143-38.594 0-38.594 18.143-77.188 18.143-38.595 0-38.595-18.143-77.189-18.143s-38.595 18.143-77.189 18.143c-38.595 0-38.595-18.143-77.19-18.143s-38.595 18.143-77.189 18.143c-38.595 0-38.595-18.143-77.191-18.143-38.597 0-38.597 18.143-77.194 18.143-38.598 0-38.869-19.229-77.451-18.139-1.09 0.031 9.327 10.158 9.327 11.248s-18.142 1.09-18.142 2.18 18.142 1.09 18.142 2.181-18.142 1.091-18.142 2.181c0 1.089 18.142 1.089 18.142 2.178 0 1.09-18.142 1.09-18.142 2.18 0 1.092 18.142 1.092 18.142 2.183s-18.142 1.091-18.142 2.183 18.142 1.092 18.142 2.184c0 1.094-18.142 1.094-18.142 2.188s8.235-6.912 9.328-6.881c38.576 1.093 38.335 18.139 76.927 18.139 38.594 0 38.594-18.143 77.188-18.143 38.595 0 38.595 18.143 77.189 18.143 38.593 0 38.593-18.143 77.187-18.143 38.595 0 38.595 18.143 77.19 18.143 38.594 0 38.594-18.143 77.189-18.143 38.596 0 38.596 18.143 77.19 18.143s38.595-18.143 77.188-18.143c38.596 0 38.596 18.143 77.191 18.143 38.598 0 38.598-18.143 77.194-18.143s38.869 19.229 77.45 18.139c1.09-0.031-9.327-10.158-9.327-11.248s18.143-1.09 18.143-2.18-18.143-1.09-18.143-2.181 18.143-1.091 18.143-2.181c0-1.089-18.143-1.089-18.143-2.178 0-1.09 18.143-1.09 18.143-2.18 0-1.092-18.143-1.092-18.143-2.183s18.143-1.091 18.143-2.183-18.143-1.092-18.143-2.184c0-1.094-0.052-1.685 0.14-0.607 0.619 3.492 9.769 5.332 8.676 5.3zM925.606 822.902c-38.576-1.093-38.335-18.139-76.927-18.139-38.594 0-38.594 18.143-77.188 18.143-38.595 0-38.595-18.143-77.189-18.143-38.594 0-38.594 18.143-77.188 18.143-38.595 0-38.595-18.143-77.189-18.143s-38.595 18.143-77.189 18.143c-38.595 0-38.595-18.143-77.19-18.143s-38.595 18.143-77.189 18.143c-38.595 0-38.595-18.143-77.191-18.143-38.597 0-38.597 18.143-77.194 18.143-38.598 0-38.869-19.229-77.451-18.139-1.09 0.031 9.327 10.158 9.327 11.248s-18.142 1.09-18.142 2.18 18.142 1.09 18.142 2.181-18.142 1.091-18.142 2.181c0 1.089 18.142 1.089 18.142 2.178 0 1.09-18.142 1.09-18.142 2.18 0 1.092 18.142 1.092 18.142 2.183s-18.142 1.091-18.142 2.183 18.142 1.092 18.142 2.184c0 1.094-18.142 1.094-18.142 2.188s8.235-6.912 9.328-6.881c38.576 1.093 38.335 18.139 76.927 18.139 38.594 0 38.594-18.143 77.188-18.143 38.595 0 38.595 18.143 77.189 18.143 38.593 0 38.593-18.143 77.187-18.143 38.595 0 38.595 18.143 77.19 18.143 38.594 0 38.594-18.143 77.189-18.143 38.596 0 38.596 18.143 77.19 18.143s38.595-18.143 77.188-18.143c38.596 0 38.596 18.143 77.191 18.143 38.598 0 38.598-18.143 77.194-18.143s38.869 19.229 77.45 18.139c1.09-0.031-9.327-10.158-9.327-11.248s18.143-1.09 18.143-2.18-18.143-1.09-18.143-2.181 18.143-1.091 18.143-2.181c0-1.089-18.143-1.089-18.143-2.178 0-1.09 18.143-1.09 18.143-2.18 0-1.092-18.143-1.092-18.143-2.183s18.143-1.091 18.143-2.183-18.143-1.092-18.143-2.184c0-1.094-0.052-1.685 0.14-0.607 0.619 3.492 9.769 5.332 8.676 5.3z" p-id="16149" fill="currentColor"></path><path d="M694.596 242.535c-7.167 0.015-13.333-2.857-19.087-6.75-6.332-4.282-11.762-9.569-16.622-15.454-0.97-1.174-1.494-2.288-0.355-3.676 6.245-7.621 13.289-14.304 22.068-18.974 10.253-5.454 20.261-4.665 30.049 1.213 7.613 4.572 13.977 10.564 19.614 17.373 0.917 1.106 1.425 2.215 0.346 3.522-7.004 8.477-14.767 16.077-25.119 20.34-3.415 1.406-7.163 2.002-10.759 2.968l-0.135-0.562z m-32.208-24.269c6.697 7.587 13.733 14.414 23.12 18.336 5.401 2.256 10.887 2.63 16.383 0.606a44.418 44.418 0 0 0 7.629-3.668c6.596-3.999 12.074-9.293 17.106-15.271-5.021-5.988-10.457-11.358-17.117-15.244-3.204-1.869-6.724-3.357-10.279-4.419-4.631-1.384-9.264-0.52-13.707 1.324-9.4 3.901-16.433 10.74-23.135 18.336z" p-id="16150" fill="currentColor"></path><path d="M708.923 218.525c-0.217 8.077-6.82 14.405-14.738 14.12-8.022-0.288-14.234-6.769-14.025-14.635 0.213-8.087 6.803-14.4 14.739-14.122 8.017 0.281 14.235 6.771 14.024 14.637z m-4.043-0.269a10.312 10.312 0 0 0-10.302-10.329c-5.821-0.011-10.405 4.6-10.375 10.438 0.026 5.686 4.668 10.258 10.393 10.24 5.701-0.019 10.287-4.633 10.284-10.349z" p-id="16151" fill="currentColor"></path><path d="M635.377 216.598c-0.094-32.277 25.715-58.219 58.018-58.312 33.063-0.094 58.718 25.289 58.839 58.217 0.119 32.314-26.845 59.328-58.739 58.849-32.146-0.483-58.023-26.645-58.118-58.754z m58.035-50.838c-27.966 0.228-50.488 22.737-50.658 50.625-0.167 27.689 23.395 51.377 51.146 51.419 27.741 0.044 51.08-23.543 50.952-51.493-0.128-28.286-23.022-50.782-51.44-50.551zM786.964 219.485c-4.289 0.012-8.605 0.297-12.85-0.13-1.67-0.168-3.178-1.933-4.759-2.969 1.287-1.425 2.529-4.03 3.871-4.082 9.358-0.369 18.742-0.342 28.105-0.05 1.229 0.04 2.387 2.318 3.577 3.559-1.427 1.22-2.76 3.331-4.297 3.493-4.506 0.471-9.092 0.168-13.647 0.179zM733.851 154.115c-0.572-3.153-2.001-5.878-1.181-7.342 4.563-8.138 9.558-16.044 14.727-23.816 0.714-1.077 3.532-1.708 4.78-1.168 0.963 0.417 1.882 3.503 1.294 4.529-4.769 8.333-9.852 16.488-14.977 24.61-0.629 0.995-2.082 1.471-4.643 3.187zM599.376 160.355c2.684 1.395 5.066 2.587 7.404 3.857 6.104 3.316 12.327 6.449 18.184 10.159 1.479 0.938 1.763 3.761 2.595 5.717-1.854 0.318-4.137 1.491-5.489 0.812-8.109-4.074-16.072-8.46-23.901-13.047-1.229-0.72-2.149-3.042-2.063-4.557 0.058-1.038 2.109-1.964 3.27-2.941zM794.148 164.074c-2.687 2.903-3.652 4.6-5.112 5.415-7.44 4.15-14.919 8.262-22.605 11.923-1.592 0.758-4.12-0.455-6.219-0.758 0.943-1.917 1.378-4.699 2.916-5.606a300.115 300.115 0 0 1 23.26-12.402c1.542-0.736 4.11 0.686 7.76 1.428zM599.196 271.318c-1.32-1.114-3.065-1.885-3.395-3.057-0.338-1.201 0.275-3.56 1.219-4.093a608.996 608.996 0 0 1 26.023-13.899c0.938-0.472 3.394 0.436 4.011 1.417 0.632 1.005 0.402 3.798-0.364 4.246-8.95 5.235-18.072 10.176-27.494 15.386zM793.442 269.022c-3.293 0.727-5.888 2.217-7.396 1.479-8.12-3.958-16.056-8.327-23.826-12.936-1.29-0.764-1.456-3.418-2.144-5.198 1.819-0.447 4.099-1.823 5.379-1.186 8.096 4.021 16.007 8.424 23.879 12.876 1.225 0.693 1.939 2.282 4.108 4.965zM637.025 120.885c1.301 1.156 2.931 2.097 3.846 3.502 4.518 6.937 9.071 13.87 13.07 21.104 0.944 1.711-0.203 4.58-0.388 6.915-1.926-0.941-4.601-1.375-5.65-2.914a308.828 308.828 0 0 1-13.545-21.741c-0.928-1.637-0.135-4.248-0.135-6.409l2.802-0.457zM656.412 283.529c-1.877 3.115-3.492 5.856-5.168 8.562-3.36 5.434-6.578 10.969-10.247 16.185-0.971 1.377-3.371 1.749-5.114 2.581-0.509-1.856-2.037-4.292-1.363-5.474 4.737-8.315 9.847-16.428 15.086-24.44 0.587-0.896 2.977-1.371 4.108-0.939 1.153 0.441 1.786 2.245 2.698 3.525zM754.83 307.923c-0.633 0.762-1.405 2.513-2.271 2.562-1.592 0.088-4.008-0.313-4.737-1.406a469.54 469.54 0 0 1-14.87-23.779c-0.675-1.156-0.154-3.84 0.818-4.845 0.688-0.711 3.96-0.382 4.56 0.506 5.523 8.19 10.723 16.598 15.987 24.962 0.267 0.423 0.27 1.012 0.513 2zM600.132 212.737c4.543 0 9.119-0.305 13.615 0.162 1.611 0.168 3.028 2.2 4.534 3.381-1.408 1.22-2.75 3.399-4.234 3.502-8.516 0.579-17.07 0.929-25.597 0.712-1.91-0.051-3.755-2.68-5.63-4.122 2.036-1.087 3.98-2.813 6.128-3.117 3.661-0.519 7.449-0.144 11.184-0.144v-0.374zM697.336 123.489c0 4.534 0.248 9.09-0.157 13.588-0.116 1.278-2.135 2.385-3.281 3.569-1.192-1.168-3.379-2.304-3.419-3.51-0.307-9.325-0.36-18.667-0.042-27.989 0.046-1.364 2.476-2.647 3.804-3.968 1.044 1.3 2.881 2.54 2.988 3.914 0.372 4.773 0.144 9.592 0.144 14.395a0.509 0.509 0 0 1-0.037 0.001zM690.16 308.51c0.001-4.02-0.394-8.095 0.177-12.032 0.263-1.811 2.414-3.348 3.711-5.01 1.133 1.519 3.189 3.003 3.245 4.561 0.313 8.831 0.309 17.684-0.011 26.515-0.059 1.589-2.098 3.105-3.222 4.657-1.3-1.675-3.505-3.241-3.722-5.048-0.542-4.49-0.179-9.088-0.178-13.643z" p-id="16152" fill="currentColor"></path></svg>